<svg t="1734330988572" class="icon" viewBox="0 0 1024 1024" version="1.1" xmlns="http://www.w3.org/2000/svg" p-id="7000" width="128" height="128"><path d="M244.91008 594.304s-59.04896-36.3264-81.19296-36.3264-81.19296-36.3264-81.19296-67.46112-14.76096-41.51296-29.52704-46.70464C38.23104 438.62528 30.848 381.5424 60.37504 365.9776c29.52704-15.56992 29.52704-41.51296 14.76096-51.8912-14.76096-10.37824-7.38304-62.26944 29.52704-72.64768 36.90496-10.37824 51.67104-31.13472 51.67104-51.8912s7.38304-31.13472 29.52704-36.3264c22.144-5.19168 88.576 0 95.95904-25.94816 7.38304-25.94816 36.90496-41.51296 66.432-41.51296s59.04896 20.75648 88.576-5.19168 103.33696-20.75648 118.10304-10.37824c14.76096 10.37824 66.432 31.13472 95.95904 20.75648 29.52704-10.37824 81.19296 0 103.33696 20.75648 22.144 20.75648 22.144 41.51296 59.04896 41.51296s66.432 31.13472 66.432 51.8912 7.38304 41.51296 36.90496 46.70464c29.52704 5.19168 44.288 36.3264 36.90496 57.08288s7.38304 57.08288 7.38304 57.08288 36.90496 36.3264 14.76096 67.46112-59.04896 51.8912-59.04896 51.8912-3.70688 47.35488-29.52704 51.8912c-29.52704 5.19168-118.10304 57.08288-118.10304 57.08288l-177.152 72.64768h-177.152l-169.76896-72.64768z" fill="#9772D3" p-id="7001"></path><path d="M50.0736 726.00576a461.33248 110.72 0 1 0 922.66496 0 461.33248 110.72 0 1 0-922.66496 0Z" fill="#8063B7" p-id="7002"></path><path d="M62.08 752.81408c-2.92864-3.15904-8.1408-0.8448-7.79776 3.46112 1.55136 19.56864 6.36416 53.08416 21.24288 73.06752 21.98528 29.52704 124.57472 140.24704 432.35328 132.864s403.04128-81.19296 432.35328-125.48096c19.73248-29.81376 26.17856-62.97088 28.288-81.4592 0.49152-4.29568-4.79232-6.8608-7.73632-3.71712-61.09184 65.31584-234.0864 86.46144-342.9888 92.55424-131.90656 7.38304-168.54528 0-271.13984-7.38304-63.41632-4.5568-236.94848-32.5376-284.57472-83.90656z" fill="#4B3075" p-id="7003"></path><path d="M460.032 539.15136a7.40864 7.40864 0 0 1-10.25024-1.97632S349.87008 445.5168 312.96512 393.84576c-30.94016-43.3152-56.14592-141.94688-56.14592-141.94688a7.40864 7.40864 0 0 1 1.97632-10.25024 7.40864 7.40864 0 0 1 10.25024 1.97632s44.9792 121.52832 58.68032 142.83264c28.08832 43.68384 134.28224 142.4384 134.28224 142.4384a7.40352 7.40352 0 0 1-1.97632 10.25536zM524.06784 488.79104h-4.52096c-2.816 0-5.12-2.304-5.12-5.12v-348.928c0-2.816 2.304-5.12 5.12-5.12h4.52096c2.816 0 5.12 2.304 5.12 5.12v348.928c0 2.816-2.304 5.12-5.12 5.12zM568.09472 540.52864c3.69664 2.7648 8.70912 2.36544 11.14112-0.89088 0 0 107.56096-84.27008 147.0464-134.00576 33.09568-41.69216 59.17696-141.83424 59.17696-141.83424 2.432-3.2512 1.39776-8.17152-2.29888-10.93632s-8.70912-2.36544-11.14112 0.89088c0 0-47.29856 121.78944-61.9264 142.47424-29.99296 42.40896-144.29696 133.36576-144.29696 133.36576-2.432 3.2512-1.39776 8.17152 2.29888 10.93632z" fill="#64458C" p-id="7004"></path><path d="M357.25312 777.67168a153.7792 36.90496 0 1 0 307.5584 0 153.7792 36.90496 0 1 0-307.5584 0Z" fill="#5E4C8C" p-id="7005"></path><path d="M512.26112 578.37568m-206.67904 0a206.67904 206.67904 0 1 0 413.35808 0 206.67904 206.67904 0 1 0-413.35808 0Z" fill="#FFAEAE" p-id="7006"></path></svg>