<?xml version="1.0" standalone="no"?><!DOCTYPE svg PUBLIC "-//W3C//DTD SVG 1.1//EN" "http://www.w3.org/Graphics/SVG/1.1/DTD/svg11.dtd"><svg t="1734488915432" class="icon" viewBox="0 0 1024 1024" version="1.1" xmlns="http://www.w3.org/2000/svg" p-id="14792" xmlns:xlink="http://www.w3.org/1999/xlink" width="200" height="200"><path d="M700.02176 0H472.45824C378.20928 0 301.7984 76.41088 301.7984 170.66496v682.66496c0 94.2592 76.416 170.67008 170.65984 170.67008h230.1184l-2.55488-1024z m-260.4544 618.60352a15.62624 15.62624 0 0 1-31.24736 0V405.39136a15.62112 15.62112 0 0 1 31.24736 0v213.21216z m78.24896 0a15.62624 15.62624 0 0 1-31.24224 0V405.39136a15.62112 15.62112 0 0 1 31.24224 0v213.21216z m78.24896 0a15.62112 15.62112 0 0 1-31.24736 0V405.39136a15.62112 15.62112 0 0 1 31.24736 0v213.21216z" p-id="14793" fill="#8CB2FF"></path></svg>